<mxfile host="app.diagrams.net" modified="2023-08-29T08:35:05.943Z" agent="Mozilla/5.0 (Windows NT 10.0; Win64; x64) AppleWebKit/537.36 (KHTML, like Gecko) Chrome/116.0.0.0 Safari/537.36" etag="kGq3gc3scWsPz-b4alaS" version="21.6.9" type="github">
  <diagram name="第 1 页" id="DohD5RoaomfWy1pnBcJk">
    <mxGraphModel dx="1050" dy="534" grid="1" gridSize="10" guides="1" tooltips="1" connect="1" arrows="1" fold="1" page="1" pageScale="1" pageWidth="827" pageHeight="1169" math="0" shadow="0">
      <root>
        <mxCell id="0" />
        <mxCell id="1" parent="0" />
        <mxCell id="6JUZGTLoGSf_0uJVb4fK-4" value="" style="edgeStyle=orthogonalEdgeStyle;rounded=0;orthogonalLoop=1;jettySize=auto;html=1;" parent="1" source="6JUZGTLoGSf_0uJVb4fK-1" target="6JUZGTLoGSf_0uJVb4fK-3" edge="1">
          <mxGeometry relative="1" as="geometry">
            <Array as="points">
              <mxPoint x="414" y="110" />
            </Array>
          </mxGeometry>
        </mxCell>
        <mxCell id="6JUZGTLoGSf_0uJVb4fK-6" style="edgeStyle=orthogonalEdgeStyle;rounded=0;orthogonalLoop=1;jettySize=auto;html=1;entryX=1;entryY=0.5;entryDx=0;entryDy=0;" parent="1" source="6JUZGTLoGSf_0uJVb4fK-1" target="6JUZGTLoGSf_0uJVb4fK-5" edge="1">
          <mxGeometry relative="1" as="geometry" />
        </mxCell>
        <mxCell id="6JUZGTLoGSf_0uJVb4fK-1" value="定位首頁" style="rounded=1;whiteSpace=wrap;html=1;" parent="1" vertex="1">
          <mxGeometry x="354" width="120" height="40" as="geometry" />
        </mxCell>
        <mxCell id="I1zwBzsRY6jKiDj7mMpL-25" style="edgeStyle=orthogonalEdgeStyle;rounded=0;orthogonalLoop=1;jettySize=auto;html=1;exitX=0;exitY=0.5;exitDx=0;exitDy=0;entryX=1;entryY=0.5;entryDx=0;entryDy=0;" edge="1" parent="1" source="6JUZGTLoGSf_0uJVb4fK-2" target="I1zwBzsRY6jKiDj7mMpL-24">
          <mxGeometry relative="1" as="geometry" />
        </mxCell>
        <mxCell id="6JUZGTLoGSf_0uJVb4fK-2" value="訂位成功" style="rounded=1;whiteSpace=wrap;html=1;" parent="1" vertex="1">
          <mxGeometry x="240" y="490" width="120" height="60" as="geometry" />
        </mxCell>
        <mxCell id="6JUZGTLoGSf_0uJVb4fK-3" value="查詢/修改定位" style="rounded=0;whiteSpace=wrap;html=1;" parent="1" vertex="1">
          <mxGeometry x="480" y="90" width="120" height="40" as="geometry" />
        </mxCell>
        <mxCell id="I1zwBzsRY6jKiDj7mMpL-8" value="" style="edgeStyle=orthogonalEdgeStyle;rounded=0;orthogonalLoop=1;jettySize=auto;html=1;" edge="1" parent="1" source="6JUZGTLoGSf_0uJVb4fK-5" target="I1zwBzsRY6jKiDj7mMpL-7">
          <mxGeometry relative="1" as="geometry" />
        </mxCell>
        <mxCell id="6JUZGTLoGSf_0uJVb4fK-5" value="開始訂位" style="rounded=0;whiteSpace=wrap;html=1;" parent="1" vertex="1">
          <mxGeometry x="240" y="90" width="120" height="40" as="geometry" />
        </mxCell>
        <mxCell id="I1zwBzsRY6jKiDj7mMpL-21" style="edgeStyle=orthogonalEdgeStyle;rounded=0;orthogonalLoop=1;jettySize=auto;html=1;exitX=0.5;exitY=1;exitDx=0;exitDy=0;" edge="1" parent="1" source="I1zwBzsRY6jKiDj7mMpL-2">
          <mxGeometry relative="1" as="geometry">
            <mxPoint x="300" y="360" as="targetPoint" />
          </mxGeometry>
        </mxCell>
        <mxCell id="I1zwBzsRY6jKiDj7mMpL-2" value="時間" style="shape=parallelogram;perimeter=parallelogramPerimeter;whiteSpace=wrap;html=1;fixedSize=1;" vertex="1" parent="1">
          <mxGeometry x="240" y="210" width="120" height="40" as="geometry" />
        </mxCell>
        <mxCell id="I1zwBzsRY6jKiDj7mMpL-20" style="edgeStyle=orthogonalEdgeStyle;rounded=0;orthogonalLoop=1;jettySize=auto;html=1;entryX=0.5;entryY=0;entryDx=0;entryDy=0;" edge="1" parent="1" source="I1zwBzsRY6jKiDj7mMpL-3" target="I1zwBzsRY6jKiDj7mMpL-19">
          <mxGeometry relative="1" as="geometry" />
        </mxCell>
        <mxCell id="I1zwBzsRY6jKiDj7mMpL-3" value="日期" style="shape=parallelogram;perimeter=parallelogramPerimeter;whiteSpace=wrap;html=1;fixedSize=1;" vertex="1" parent="1">
          <mxGeometry x="110" y="210" width="120" height="40" as="geometry" />
        </mxCell>
        <mxCell id="I1zwBzsRY6jKiDj7mMpL-16" style="edgeStyle=orthogonalEdgeStyle;rounded=0;orthogonalLoop=1;jettySize=auto;html=1;entryX=0.5;entryY=0;entryDx=0;entryDy=0;" edge="1" parent="1" source="I1zwBzsRY6jKiDj7mMpL-4" target="I1zwBzsRY6jKiDj7mMpL-15">
          <mxGeometry relative="1" as="geometry" />
        </mxCell>
        <mxCell id="I1zwBzsRY6jKiDj7mMpL-17" style="edgeStyle=orthogonalEdgeStyle;rounded=0;orthogonalLoop=1;jettySize=auto;html=1;exitX=0.5;exitY=1;exitDx=0;exitDy=0;entryX=0.5;entryY=0;entryDx=0;entryDy=0;" edge="1" parent="1" source="I1zwBzsRY6jKiDj7mMpL-4" target="I1zwBzsRY6jKiDj7mMpL-13">
          <mxGeometry relative="1" as="geometry" />
        </mxCell>
        <mxCell id="I1zwBzsRY6jKiDj7mMpL-4" value="人數" style="shape=parallelogram;perimeter=parallelogramPerimeter;whiteSpace=wrap;html=1;fixedSize=1;" vertex="1" parent="1">
          <mxGeometry x="370" y="210" width="120" height="40" as="geometry" />
        </mxCell>
        <mxCell id="I1zwBzsRY6jKiDj7mMpL-5" value="查詢結果" style="rounded=1;whiteSpace=wrap;html=1;" vertex="1" parent="1">
          <mxGeometry x="480" y="490" width="120" height="60" as="geometry" />
        </mxCell>
        <mxCell id="I1zwBzsRY6jKiDj7mMpL-6" value="修改成功" style="rounded=1;whiteSpace=wrap;html=1;" vertex="1" parent="1">
          <mxGeometry x="610" y="490" width="120" height="60" as="geometry" />
        </mxCell>
        <mxCell id="I1zwBzsRY6jKiDj7mMpL-9" value="" style="edgeStyle=orthogonalEdgeStyle;rounded=0;orthogonalLoop=1;jettySize=auto;html=1;" edge="1" parent="1" source="I1zwBzsRY6jKiDj7mMpL-7" target="I1zwBzsRY6jKiDj7mMpL-2">
          <mxGeometry relative="1" as="geometry" />
        </mxCell>
        <mxCell id="I1zwBzsRY6jKiDj7mMpL-10" style="edgeStyle=orthogonalEdgeStyle;rounded=0;orthogonalLoop=1;jettySize=auto;html=1;exitX=0.5;exitY=1;exitDx=0;exitDy=0;entryX=0.5;entryY=0;entryDx=0;entryDy=0;" edge="1" parent="1" source="I1zwBzsRY6jKiDj7mMpL-7" target="I1zwBzsRY6jKiDj7mMpL-3">
          <mxGeometry relative="1" as="geometry">
            <Array as="points">
              <mxPoint x="300" y="200" />
              <mxPoint x="170" y="200" />
            </Array>
          </mxGeometry>
        </mxCell>
        <mxCell id="I1zwBzsRY6jKiDj7mMpL-11" style="edgeStyle=orthogonalEdgeStyle;rounded=0;orthogonalLoop=1;jettySize=auto;html=1;exitX=0.5;exitY=1;exitDx=0;exitDy=0;" edge="1" parent="1" source="I1zwBzsRY6jKiDj7mMpL-7" target="I1zwBzsRY6jKiDj7mMpL-4">
          <mxGeometry relative="1" as="geometry">
            <Array as="points">
              <mxPoint x="300" y="200" />
              <mxPoint x="430" y="200" />
            </Array>
          </mxGeometry>
        </mxCell>
        <mxCell id="I1zwBzsRY6jKiDj7mMpL-7" value="選擇分店" style="rounded=0;whiteSpace=wrap;html=1;" vertex="1" parent="1">
          <mxGeometry x="240" y="150" width="120" height="40" as="geometry" />
        </mxCell>
        <mxCell id="I1zwBzsRY6jKiDj7mMpL-23" style="edgeStyle=orthogonalEdgeStyle;rounded=0;orthogonalLoop=1;jettySize=auto;html=1;exitX=0.5;exitY=1;exitDx=0;exitDy=0;" edge="1" parent="1" source="I1zwBzsRY6jKiDj7mMpL-13">
          <mxGeometry relative="1" as="geometry">
            <mxPoint x="300" y="360" as="targetPoint" />
          </mxGeometry>
        </mxCell>
        <mxCell id="I1zwBzsRY6jKiDj7mMpL-13" value="小孩" style="shape=parallelogram;perimeter=parallelogramPerimeter;whiteSpace=wrap;html=1;fixedSize=1;" vertex="1" parent="1">
          <mxGeometry x="430" y="280" width="60" height="40" as="geometry" />
        </mxCell>
        <mxCell id="I1zwBzsRY6jKiDj7mMpL-22" style="edgeStyle=orthogonalEdgeStyle;rounded=0;orthogonalLoop=1;jettySize=auto;html=1;exitX=0.5;exitY=1;exitDx=0;exitDy=0;entryX=0.5;entryY=0;entryDx=0;entryDy=0;" edge="1" parent="1" source="I1zwBzsRY6jKiDj7mMpL-15" target="I1zwBzsRY6jKiDj7mMpL-19">
          <mxGeometry relative="1" as="geometry" />
        </mxCell>
        <mxCell id="I1zwBzsRY6jKiDj7mMpL-15" value="大人" style="shape=parallelogram;perimeter=parallelogramPerimeter;whiteSpace=wrap;html=1;fixedSize=1;" vertex="1" parent="1">
          <mxGeometry x="350" y="280" width="60" height="40" as="geometry" />
        </mxCell>
        <mxCell id="I1zwBzsRY6jKiDj7mMpL-27" style="edgeStyle=orthogonalEdgeStyle;rounded=0;orthogonalLoop=1;jettySize=auto;html=1;exitX=0.5;exitY=1;exitDx=0;exitDy=0;entryX=0.5;entryY=0;entryDx=0;entryDy=0;" edge="1" parent="1" source="I1zwBzsRY6jKiDj7mMpL-19" target="I1zwBzsRY6jKiDj7mMpL-26">
          <mxGeometry relative="1" as="geometry" />
        </mxCell>
        <mxCell id="I1zwBzsRY6jKiDj7mMpL-19" value="姓名,電話,備註" style="shape=parallelogram;perimeter=parallelogramPerimeter;whiteSpace=wrap;html=1;fixedSize=1;" vertex="1" parent="1">
          <mxGeometry x="130" y="360" width="340" height="40" as="geometry" />
        </mxCell>
        <mxCell id="I1zwBzsRY6jKiDj7mMpL-24" value="發送成功簡訊" style="rounded=0;whiteSpace=wrap;html=1;" vertex="1" parent="1">
          <mxGeometry x="100" y="500" width="120" height="40" as="geometry" />
        </mxCell>
        <mxCell id="I1zwBzsRY6jKiDj7mMpL-28" style="edgeStyle=orthogonalEdgeStyle;rounded=0;orthogonalLoop=1;jettySize=auto;html=1;exitX=0.5;exitY=1;exitDx=0;exitDy=0;entryX=0.5;entryY=0;entryDx=0;entryDy=0;" edge="1" parent="1" source="I1zwBzsRY6jKiDj7mMpL-26" target="6JUZGTLoGSf_0uJVb4fK-2">
          <mxGeometry relative="1" as="geometry" />
        </mxCell>
        <mxCell id="I1zwBzsRY6jKiDj7mMpL-26" value="注意事項" style="rounded=0;whiteSpace=wrap;html=1;" vertex="1" parent="1">
          <mxGeometry x="240" y="430" width="120" height="40" as="geometry" />
        </mxCell>
      </root>
    </mxGraphModel>
  </diagram>
</mxfile>
